REM DIRINDEX 1\2,1\3
REM DIRNAME cjc140,folder01,folder02
TITLE ""
FILE "Track53.mp3" MP3
  TRACK 01 AUDIO
    TITLE "0:"
    INDEX 01 00:00:00
  TRACK 02 AUDIO
    TITLE "3:cjc140_190"
    INDEX 01 00:00:05
  TRACK 03 AUDIO
    TITLE "2:cjc140_191"
    INDEX 01 00:01:73
  TRACK 04 AUDIO
    TITLE "2:cjc140_192"
    INDEX 01 00:12:65
  TRACK 05 AUDIO
    TITLE "0:"
    INDEX 01 00:16:10
